<svg width="791" height="112" viewBox="0 0 791 112" fill="none" xmlns="http://www.w3.org/2000/svg">
<path d="M195.809 106.898H170.063L134.681 1.5056H157.266L183.011 82.5073L208.607 1.5056H231.341L195.809 106.898Z" fill="black"/>
<path d="M-9.15527e-05 106.898V1.5056H20.7773V106.898H-9.15527e-05Z" fill="black"/>
<path d="M458.301 109.608C447.962 109.608 439.23 107.3 432.103 102.683C424.977 98.0654 419.908 91.6916 416.897 83.5613L434.663 73.1727C438.778 83.9127 446.858 89.2827 458.903 89.2827C464.524 89.2827 468.74 88.2789 471.55 86.2714C474.361 84.264 475.766 81.5539 475.766 78.1412C475.766 74.4273 474.11 71.5667 470.797 69.5592C467.485 67.4514 461.563 65.1929 453.031 62.784C443.797 59.9735 436.52 56.7114 431.2 52.9975C424.575 48.0792 421.263 40.8523 421.263 31.3168C421.263 21.6809 424.625 14.1027 431.35 8.58211C438.076 2.8608 446.256 0.000144958 455.892 0.000144958C464.323 0.000144958 471.801 2.05781 478.325 6.17314C484.85 10.2885 489.919 16.1101 493.532 23.6382L476.067 33.7257C471.851 24.6921 465.126 20.1753 455.892 20.1753C451.676 20.1753 448.314 21.179 445.804 23.1865C443.295 25.0936 442.04 27.6029 442.04 30.7145C442.04 34.0269 443.395 36.737 446.105 38.8448C449.117 40.9527 454.436 43.1609 462.065 45.4695L469.292 47.8785C470.597 48.2799 472.855 49.1331 476.067 50.438C479.078 51.5421 481.286 52.596 482.692 53.5998C487.61 56.611 490.922 59.7226 492.629 62.9345C495.238 67.1502 496.543 72.1187 496.543 77.84C496.543 87.5763 492.98 95.3051 485.853 101.026C478.727 106.748 469.543 109.608 458.301 109.608Z" fill="black"/>
<path d="M533.199 63.3862V87.0242H577.614V106.898H512.421V1.50574H576.861V21.3798H533.199V43.8133H573.097V63.3862H533.199Z" fill="black"/>
<path d="M336.853 66.8912H258.902C262.349 80.1147 272.067 86.7264 288.057 86.7264C298.257 86.7264 305.976 83.2095 311.214 76.1757L332.718 88.8365C322.518 103.889 307.493 111.415 287.643 111.415C270.55 111.415 256.835 106.14 246.497 95.5889C236.158 85.0383 230.989 71.7445 230.989 55.7075C230.989 39.9518 236.089 26.7283 246.29 16.037C256.352 5.34567 269.448 0 285.575 0C300.876 0 313.351 5.34567 323 16.037C332.925 26.7283 337.887 39.9518 337.887 55.7075C337.887 58.6617 337.543 62.3895 336.853 66.8912ZM258.489 45.7898H311.214C309.698 38.8967 306.597 33.6214 301.91 29.9639C297.361 26.3063 291.916 24.4775 285.575 24.4775C278.407 24.4775 272.48 26.3766 267.793 30.1749C263.107 33.8324 260.005 39.0374 258.489 45.7898Z" fill="black"/>
<path d="M377.58 2.09605V20.122C380.009 13.5544 384.152 8.59377 390.01 5.24011C395.868 1.7467 402.584 0 410.156 0V30.183C401.727 29.0651 394.154 30.7419 387.438 35.2135C380.866 39.5453 377.58 46.7417 377.58 56.8027V106.898H349.932V2.09605H377.58Z" fill="black"/>
<path d="M93.1597 1.5056C104.577 1.5056 113.862 5.26473 121.015 12.783C128.443 20.438 132.157 30.8269 132.157 43.9497V106.898H105.54V47.2304C105.54 40.5323 103.683 35.3378 99.9687 31.647C96.3923 27.9562 91.4402 26.1108 85.1126 26.1108C78.0971 26.1108 72.5261 28.298 68.3993 32.6722C64.4102 36.9098 62.4156 43.1978 62.4156 51.5363V106.898H35.7983V4.37621H62.4156V15.8587C68.7432 6.28995 78.9913 1.5056 93.1597 1.5056Z" fill="black"/>
<rect width="6" height="111" transform="translate(625.614)" fill="black"/>
<path d="M744.103 63.4183C742.554 65.0887 740.546 66.2647 738.331 66.7991C736.116 67.3335 733.793 67.2024 731.652 66.4223C729.511 65.6422 727.649 64.2478 726.297 62.4137C724.945 60.5796 724.164 58.3874 724.053 56.1117C723.941 53.8359 724.504 51.5779 725.67 49.6205C726.836 47.663 728.554 46.0931 730.608 45.1075C732.662 44.1218 734.961 43.7642 737.218 44.0795C739.474 44.3948 741.588 45.3689 743.293 46.8798C744.448 47.9027 745.386 49.1461 746.054 50.5369C746.721 51.9276 747.104 53.4377 747.179 54.9785C747.255 56.5192 747.021 58.0595 746.493 59.5088C745.965 60.9582 745.153 62.2873 744.103 63.4183Z" fill="url(#paint0_radial_5_13)"/>
<path d="M738.58 15.7378C739.53 16.6585 740.43 17.6302 741.275 18.6486C744.084 22.0113 746.395 25.7596 748.139 29.779C750.895 30.3043 753.705 30.4986 756.507 30.3578H757.004H757.45C765.081 29.6564 772.204 26.2272 777.511 20.6994L778.206 19.9551C777.164 18.6982 776.072 17.4578 774.898 16.2671C765.433 6.82266 752.886 1.09927 739.549 0.142744C726.213 -0.81378 712.977 3.06044 702.261 11.0574C719.379 2.77165 731.22 8.49397 738.58 15.7378Z" fill="url(#paint1_linear_5_13)"/>
<path d="M699.185 72.2498C699.516 70.9267 699.929 69.6698 700.359 68.4625C701.856 64.327 703.939 60.4281 706.545 56.8856C705.617 54.2349 704.379 51.7034 702.857 49.344L702.592 48.9306C702.513 48.8027 702.425 48.681 702.327 48.5667C697.923 42.3369 691.425 37.8991 684.019 36.0636L683.027 35.8155C682.465 37.3702 681.935 38.9248 681.489 40.5456C678.05 53.4617 679.371 67.1836 685.21 79.2069C691.048 91.2303 701.015 100.753 713.292 106.038C697.564 95.3706 696.588 82.2556 699.185 72.2498Z" fill="url(#paint2_linear_5_13)"/>
<path d="M767.968 78.1706C766.696 78.5341 765.404 78.8268 764.098 79.0471C759.788 79.7884 755.393 79.9053 751.05 79.3944C749.213 81.5202 747.636 83.8576 746.353 86.3571L746.138 86.7872L745.939 87.2006C742.75 94.1508 742.163 102.016 744.285 109.362C744.285 109.676 744.467 110.007 744.567 110.338C746.22 110.057 747.874 109.726 749.429 109.296C762.312 105.807 773.512 97.805 780.989 86.749C788.466 75.6929 791.722 62.3185 790.163 49.0629C788.757 68.016 777.908 75.4252 767.968 78.1706Z" fill="url(#paint3_linear_5_13)"/>
<path d="M702.261 11.0574C694.113 16.752 687.743 24.6358 683.887 33.7978C689.628 35.0237 694.943 37.7451 699.293 41.6862C703.644 45.6274 706.876 50.6484 708.662 56.2406C710.183 55.2648 714.897 51.5436 718.072 41.3559C721.892 28.9521 729.153 19.8559 738.58 15.8371C738.58 15.7378 726.655 -1.28028 702.261 11.0574Z" fill="url(#paint4_linear_5_13)"/>
<path d="M740.531 100.316C740.522 92.007 743.633 83.9977 749.247 77.8729V77.7571C748.106 76.5333 744.12 73.5398 733.866 75.8717C721.214 78.766 707.256 78.4187 699.135 72.2498C699.135 72.2498 690.37 91.0871 713.243 106.038C722.24 110.249 732.245 111.831 742.102 110.603C741.017 107.283 740.486 103.808 740.531 100.316Z" fill="url(#paint5_linear_5_13)"/>
<path d="M779.678 21.7744C776.598 25.2729 772.81 28.0772 768.564 30.0017C764.319 31.9262 759.713 32.927 755.052 32.9378C752.595 32.9262 750.146 32.6658 747.742 32.1605H747.61C747.147 33.8144 746.75 38.7759 753.729 46.2844C762.544 55.794 769.225 68.0491 767.969 78.1871C767.969 78.1871 788.658 76.3679 790.163 49.0794C789.315 39.1706 785.68 29.7042 779.678 21.7744Z" fill="url(#paint6_linear_5_13)"/>
<defs>
<radialGradient id="paint0_radial_5_13" cx="0" cy="0" r="1" gradientUnits="userSpaceOnUse" gradientTransform="translate(740.384 42.9592) scale(16.2587 16.2587)">
<stop stop-color="#4495D1"/>
<stop offset="1" stop-color="#15256D"/>
</radialGradient>
<linearGradient id="paint1_linear_5_13" x1="719.61" y1="3.75133" x2="768.528" y2="23.4331" gradientUnits="userSpaceOnUse">
<stop stop-color="#4495D1"/>
<stop offset="1" stop-color="#15256D"/>
</linearGradient>
<linearGradient id="paint2_linear_5_13" x1="698.353" y1="94.6771" x2="690.955" y2="42.4762" gradientUnits="userSpaceOnUse">
<stop stop-color="#4495D1"/>
<stop offset="1" stop-color="#15256D"/>
</linearGradient>
<linearGradient id="paint3_linear_5_13" x1="787.839" y1="67.7122" x2="746.331" y2="100.22" gradientUnits="userSpaceOnUse">
<stop stop-color="#4495D1"/>
<stop offset="1" stop-color="#15256D"/>
</linearGradient>
<linearGradient id="paint4_linear_5_13" x1="700.028" y1="41.174" x2="722.025" y2="7.45204" gradientUnits="userSpaceOnUse">
<stop stop-color="#4495D1"/>
<stop offset="1" stop-color="#15256D"/>
</linearGradient>
<linearGradient id="paint5_linear_5_13" x1="741.623" y1="89.301" x2="702.195" y2="93.3198" gradientUnits="userSpaceOnUse">
<stop stop-color="#4495D1"/>
<stop offset="1" stop-color="#15256D"/>
</linearGradient>
<linearGradient id="paint6_linear_5_13" x1="767.026" y1="32.2432" x2="775.064" y2="72.8287" gradientUnits="userSpaceOnUse">
<stop stop-color="#4495D1"/>
<stop offset="1" stop-color="#15256D"/>
</linearGradient>
</defs>
</svg>
